<svg xmlns="http://www.w3.org/2000/svg" width="1200" height="750" viewBox="0 0 1200 750"><rect width="1200" height="750" fill="#dce4e8"/><path d="M0 650 1200 90v660H0z" fill="#d1dde1" opacity=".6"/><path d="M200 235h800M200 410h800M200 570h800M230 185v405m365-405v405m365-405v405" stroke="#869aa4" stroke-width="14"/><g fill="#b9b4a6"><rect x="270" y="265" width="120" height="125"/><rect x="415" y="300" width="125" height="90"/><rect x="650" y="265" width="240" height="125"/><rect x="270" y="445" width="265" height="105"/><rect x="650" y="450" width="110" height="100"/><rect x="785" y="445" width="105" height="105"/></g><path d="M330 265v45m440-45v45m-370 135v40m435-40v40" stroke="#ece8de" stroke-width="16"/></svg>
